<svg width="138" height="141" viewBox="0 0 138 141" fill="none" xmlns="http://www.w3.org/2000/svg">
<g clip-path="url(#clip0_434_3895)">
<path d="M129.849 59.5441C125.918 58.8373 121.137 57.9995 116.644 71.6519C112.15 85.3042 102.458 85.3042 89.54 89.3881C76.6217 93.4721 60.1897 116.837 66.6423 118.237C73.0949 119.638 89.109 99.3754 93.8896 104.86C98.6703 110.344 93.8896 121.889 75.629 127.95C73.9832 128.5 72.2982 128.905 70.587 129.219C70.3911 128.29 69.8686 127.007 68.8106 125.201C65.8717 120.201 62.2796 118.931 60.882 119.075C59.3537 119.232 64.3826 126.392 67.1779 129.691C66.4333 129.769 65.6888 129.835 64.9443 129.874C64.461 128.617 63.3638 126.785 61.313 124.141C56.8066 118.368 50.2234 115.41 48.251 115.554C46.0697 115.711 55.3176 125.554 60.0199 129.926C59.4843 129.913 58.9619 129.887 58.4263 129.861C57.8516 129.102 56.8589 128.107 55.2784 126.811C45.7301 118.931 35.6593 114.847 32.0542 116.824C30.4867 117.675 40.0612 124.756 46.0566 128.356C38.6243 127.02 33.1122 125.502 32.0542 126.536C29.7552 128.788 38.977 136.523 57.1071 140.044C75.2241 143.566 108.088 137.937 124.52 112.033C140.952 86.1419 141.919 61.7039 129.849 59.5441Z" fill="#8095F2"/>
<path d="M91.9433 12.6446C99.3756 13.9797 104.888 15.4981 105.946 14.464C108.245 12.2126 99.0229 4.47675 80.8929 0.955676C62.7628 -2.5654 29.9119 3.06308 13.4799 28.9672C-2.9521 54.8582 -3.91868 79.2963 8.1506 81.456C12.0823 82.1629 16.863 83.0006 21.3563 69.3483C25.8496 55.6959 35.5416 55.6959 48.4599 51.612C61.3782 47.5281 77.8102 24.1633 71.3576 22.7628C64.905 21.3622 48.8779 41.6247 44.1103 36.1402C39.3296 30.6557 44.1103 19.1108 62.371 13.0504C64.0168 12.5006 65.7018 12.0948 67.3998 11.7807C67.5957 12.71 68.1182 13.9928 69.1763 15.7992C72.1152 20.7993 75.7073 22.069 77.1049 21.925C78.6331 21.768 73.6043 14.608 70.809 11.3095C71.5535 11.2309 72.2981 11.1655 73.0426 11.1262C73.5259 12.3828 74.6231 14.2153 76.6738 16.8594C81.1802 22.6319 87.7635 25.5901 89.7358 25.4461C91.9172 25.289 82.6693 15.4457 77.967 11.0739C78.5025 11.0869 79.025 11.1131 79.5605 11.1393C80.1353 11.8985 81.128 12.8933 82.7085 14.1892C92.2568 22.069 102.328 26.1529 105.933 24.1764C107.513 23.3125 97.9518 16.2442 91.9433 12.6446Z" fill="#8095F2"/>
<path d="M88.495 58.7718H80.6709V50.9312C80.6709 48.7845 78.9336 47.0436 76.7915 47.0436H68.6539C66.5117 47.0436 64.7744 48.7845 64.7744 50.9312V58.7718H56.9503C54.8081 58.7718 53.0709 60.5127 53.0709 62.6594V70.8142C53.0709 72.9608 54.8081 74.7017 56.9503 74.7017H64.7744V82.5423C64.7744 84.689 66.5117 86.4299 68.6539 86.4299H76.7915C78.9336 86.4299 80.6709 84.689 80.6709 82.5423V74.7017H88.495C90.6372 74.7017 92.3744 72.9608 92.3744 70.8142V62.6594C92.3744 60.5127 90.6372 58.7718 88.495 58.7718Z" fill="#121B33"/>
</g>
<defs>
<clipPath id="clip0_434_3895">
<rect width="138" height="141" fill="white"/>
</clipPath>
</defs>
</svg>
